STARTFONT 2.1
FONT -misc-tadepe-bold-r-normal--16-160-75-75-C-80-iso10646-1
SIZE 16 75 75
FONTBOUNDINGBOX 8 16 0 -3
STARTPROPERTIES 20
FONTNAME_REGISTRY ""
FOUNDRY "misc"
FAMILY_NAME "Tadepe"
WEIGHT_NAME "Bold"
SLANT "R"
SETWIDTH_NAME "Normal"
ADD_STYLE_NAME ""
PIXEL_SIZE 16
POINT_SIZE 160
RESOLUTION_X 75
RESOLUTION_Y 75
SPACING "C"
AVERAGE_WIDTH 80
CHARSET_REGISTRY "ISO10646"
CHARSET_ENCODING "1"
DEFAULT_CHAR 0
FONT_DESCENT 3
FONT_ASCENT 13
COPYRIGHT "Copyright (C) 2022-2023 Lucas de Sena"
_GBDFED_INFO "Edited with gbdfed 1.6."
ENDPROPERTIES
CHARS 26
STARTCHAR U+0300
ENCODING 768
SWIDTH 480 0
DWIDTH 8 0
BBX 8 16 0 -3
BITMAP
00
00
30
18
08
00
00
00
00
00
00
00
00
00
00
00
ENDCHAR
STARTCHAR U+0301
ENCODING 769
SWIDTH 480 0
DWIDTH 8 0
BBX 8 16 0 -3
BITMAP
00
00
18
30
20
00
00
00
00
00
00
00
00
00
00
00
ENDCHAR
STARTCHAR U+0302
ENCODING 770
SWIDTH 480 0
DWIDTH 8 0
BBX 8 16 0 -3
BITMAP
00
00
38
6C
00
00
00
00
00
00
00
00
00
00
00
00
ENDCHAR
STARTCHAR U+0303
ENCODING 771
SWIDTH 480 0
DWIDTH 8 0
BBX 8 16 0 -3
BITMAP
00
00
76
DC
00
00
00
00
00
00
00
00
00
00
00
00
ENDCHAR
STARTCHAR U+0304
ENCODING 772
SWIDTH 480 0
DWIDTH 8 0
BBX 8 16 0 -3
BITMAP
00
00
00
7C
00
00
00
00
00
00
00
00
00
00
00
00
ENDCHAR
STARTCHAR U+0305
ENCODING 773
SWIDTH 480 0
DWIDTH 8 0
BBX 8 16 0 -3
BITMAP
00
00
00
FE
00
00
00
00
00
00
00
00
00
00
00
00
ENDCHAR
STARTCHAR U+0306
ENCODING 774
SWIDTH 480 0
DWIDTH 8 0
BBX 8 16 0 -3
BITMAP
00
00
44
38
00
00
00
00
00
00
00
00
00
00
00
00
ENDCHAR
STARTCHAR U+0307
ENCODING 775
SWIDTH 480 0
DWIDTH 8 0
BBX 8 16 0 -3
BITMAP
00
00
18
18
00
00
00
00
00
00
00
00
00
00
00
00
ENDCHAR
STARTCHAR U+0308
ENCODING 776
SWIDTH 480 0
DWIDTH 8 0
BBX 8 16 0 -3
BITMAP
00
00
6C
6C
00
00
00
00
00
00
00
00
00
00
00
00
ENDCHAR
STARTCHAR U+0309
ENCODING 777
SWIDTH 480 0
DWIDTH 8 0
BBX 8 16 0 -3
BITMAP
00
38
04
08
00
00
00
00
00
00
00
00
00
00
00
00
ENDCHAR
STARTCHAR U+030A
ENCODING 778
SWIDTH 480 0
DWIDTH 8 0
BBX 8 16 0 -3
BITMAP
00
38
6C
38
00
00
00
00
00
00
00
00
00
00
00
00
ENDCHAR
STARTCHAR U+030B
ENCODING 779
SWIDTH 480 0
DWIDTH 8 0
BBX 8 16 0 -3
BITMAP
00
00
66
CC
88
00
00
00
00
00
00
00
00
00
00
00
ENDCHAR
STARTCHAR U+030C
ENCODING 780
SWIDTH 480 0
DWIDTH 8 0
BBX 8 16 0 -3
BITMAP
00
00
6C
38
00
00
00
00
00
00
00
00
00
00
00
00
ENDCHAR
STARTCHAR U+030D
ENCODING 781
SWIDTH 480 0
DWIDTH 8 0
BBX 8 16 0 -3
BITMAP
00
00
10
10
10
00
00
00
00
00
00
00
00
00
00
00
ENDCHAR
STARTCHAR U+030E
ENCODING 782
SWIDTH 480 0
DWIDTH 8 0
BBX 8 16 0 -3
BITMAP
00
00
28
28
28
00
00
00
00
00
00
00
00
00
00
00
ENDCHAR
STARTCHAR U+030F
ENCODING 783
SWIDTH 480 0
DWIDTH 8 0
BBX 8 16 0 -3
BITMAP
00
00
CC
66
22
00
00
00
00
00
00
00
00
00
00
00
ENDCHAR
STARTCHAR U+0311
ENCODING 785
SWIDTH 480 0
DWIDTH 8 0
BBX 8 16 0 -3
BITMAP
00
00
38
44
00
00
00
00
00
00
00
00
00
00
00
00
ENDCHAR
STARTCHAR U+0313
ENCODING 787
SWIDTH 480 0
DWIDTH 8 0
BBX 8 16 0 -3
BITMAP
00
00
18
18
30
00
00
00
00
00
00
00
00
00
00
00
ENDCHAR
STARTCHAR U+0314
ENCODING 788
SWIDTH 480 0
DWIDTH 8 0
BBX 8 16 0 -3
BITMAP
00
00
30
30
18
00
00
00
00
00
00
00
00
00
00
00
ENDCHAR
STARTCHAR U+031A
ENCODING 794
SWIDTH 480 0
DWIDTH 8 0
BBX 8 16 0 -3
BITMAP
00
00
3C
04
04
00
00
00
00
00
00
00
00
00
00
00
ENDCHAR
STARTCHAR char807
ENCODING 807
SWIDTH 480 0
DWIDTH 8 0
BBX 8 16 0 -3
BITMAP
00
00
00
00
00
00
00
00
00
00
00
00
00
18
18
30
ENDCHAR
STARTCHAR char808
ENCODING 808
SWIDTH 480 0
DWIDTH 8 0
BBX 8 16 0 -3
BITMAP
00
00
00
00
00
00
00
00
00
00
00
00
00
0C
0C
06
ENDCHAR
STARTCHAR U+0305
ENCODING 818
SWIDTH 480 0
DWIDTH 8 0
BBX 8 16 0 -3
BITMAP
00
00
00
00
00
00
00
00
00
00
00
00
00
00
FE
00
ENDCHAR
STARTCHAR U+0304
ENCODING 822
SWIDTH 480 0
DWIDTH 8 0
BBX 8 16 0 -3
BITMAP
00
00
00
00
00
00
00
00
00
FE
00
00
00
00
00
00
ENDCHAR
STARTCHAR char823
ENCODING 823
SWIDTH 480 0
DWIDTH 8 0
BBX 8 16 0 -3
BITMAP
00
00
02
04
04
08
08
10
10
20
20
40
40
80
00
00
ENDCHAR
STARTCHAR char824
ENCODING 824
SWIDTH 480 0
DWIDTH 8 0
BBX 8 16 0 -3
BITMAP
00
00
06
06
0C
0C
18
18
30
30
60
60
C0
C0
00
00
ENDCHAR
ENDFONT
